<svg xmlns="http://www.w3.org/2000/svg" width="43" height="43" viewBox="0 0 43 43"><g transform="translate(-1.5 -1.5)"><path d="M23,1.5a21.505,21.505,0,0,1,8.369,41.31A21.505,21.505,0,0,1,14.631,3.19,21.367,21.367,0,0,1,23,1.5Zm0,40A18.5,18.5,0,0,0,36.081,9.919,18.5,18.5,0,1,0,9.919,36.081,18.379,18.379,0,0,0,23,41.5Z" transform="translate(0 0)"/><path d="M28,30.5a1.494,1.494,0,0,1-.67-.159l-10-5A1.5,1.5,0,0,1,16.5,24V9a1.5,1.5,0,0,1,3,0V23.073l9.171,4.585A1.5,1.5,0,0,1,28,30.5Z" transform="translate(3.75 0.667)"/></g></svg>