<svg xmlns="http://www.w3.org/2000/svg" width="40.009" height="40" viewBox="0 0 40.009 40"><path d="M20,14.717A10.255,10.255,0,1,0,30.253,24.973,10.239,10.239,0,0,0,20,14.717ZM20,31.64a6.667,6.667,0,1,1,6.667-6.667A6.68,6.68,0,0,1,20,31.64ZM33.064,14.3a2.392,2.392,0,1,1-2.392-2.392A2.387,2.387,0,0,1,33.064,14.3Zm6.792,2.428c-.152-3.2-.884-6.043-3.231-8.381s-5.177-3.07-8.381-3.231c-3.3-.187-13.2-.187-16.5,0C8.546,5.265,5.707,6,3.36,8.335S.29,13.512.129,16.716c-.187,3.3-.187,13.2,0,16.5.152,3.2.884,6.043,3.231,8.381s5.177,3.07,8.381,3.231c3.3.187,13.2.187,16.5,0,3.2-.152,6.043-.884,8.381-3.231s3.07-5.177,3.231-8.381C40.044,29.917,40.044,20.028,39.857,16.725ZM35.59,36.763a6.75,6.75,0,0,1-3.8,3.8c-2.633,1.044-8.881.8-11.791.8s-9.167.232-11.791-.8a6.75,6.75,0,0,1-3.8-3.8c-1.044-2.633-.8-8.881-.8-11.791s-.232-9.167.8-11.791a6.75,6.75,0,0,1,3.8-3.8c2.633-1.044,8.881-.8,11.791-.8s9.167-.232,11.791.8a6.75,6.75,0,0,1,3.8,3.8c1.044,2.633.8,8.881.8,11.791S36.634,34.139,35.59,36.763Z" transform="translate(0.012 -4.973)"/></svg>