<svg xmlns="http://www.w3.org/2000/svg" width="42" height="40" viewBox="0 0 42 40"><g transform="translate(-1.348 -4.977)"><g transform="translate(1.348 4.977)"><path d="M25.432,5.506a1.917,1.917,0,0,0-2.827.2,2.02,2.02,0,1,0,2.827-.2Z" transform="translate(-1.145 -4.977)"/><path d="M31.505,8.409a2.226,2.226,0,0,0,.2,3.134,2.324,2.324,0,1,0,3.029-3.437,2.22,2.22,0,0,0-3.231.3Z" transform="translate(-1.058 -4.949)"/><path d="M41.947,19.248a2.724,2.724,0,1,0-1.9,1,2.732,2.732,0,0,0,1.9-1Z" transform="translate(-0.998 -4.87)"/><path d="M42.059,27.612a3.537,3.537,0,1,0,.109,4.7,3.532,3.532,0,0,0-.109-4.7Z" transform="translate(-1.009 -4.742)"/><path d="M26.111,37.117a4.545,4.545,0,1,0,6.362-.505,4.44,4.44,0,0,0-6.362.505Z" transform="translate(-1.116 -4.643)"/><path d="M9.912,34.319a5.16,5.16,0,0,0,.5,7.178,5.052,5.052,0,1,0-.5-7.178Z" transform="translate(-1.276 -4.675)"/><ellipse cx="5.571" cy="5.577" rx="5.571" ry="5.577" transform="translate(0 12.239) rotate(-4.574)"/></g></g></svg>