<svg xmlns="http://www.w3.org/2000/svg" width="225.296" height="40" viewBox="0 0 225.296 40"><g transform="translate(-2283 -11772)"><path d="M0,27.253V.15H3.267V26.436L20.4,26.38V27.2Z" transform="translate(2283 11771.935)"/><path d="M48.456,27.3a13.658,13.658,0,0,1-5.131-.991,10.138,10.138,0,0,1-4.072-2.872,6.759,6.759,0,0,1-1.594-4.506V.15h4.1q0,5.306-.051,9.141-.056,2.878-.056,5.069a50.477,50.477,0,0,0,.31,6.381,6.81,6.81,0,0,0,1.256,3.379,7.176,7.176,0,0,0,2.816,1.949,6.719,6.719,0,0,0,2.647.513,9.9,9.9,0,0,0,3.813-.749,8.448,8.448,0,0,0,3.194-2.253A5,5,0,0,0,57,20.179V.15h.811V20.179a6.2,6.2,0,0,1-1.938,4.4,8.747,8.747,0,0,1-3.379,2.056A12.5,12.5,0,0,1,48.456,27.3Z" transform="translate(2266.552 11771.935)"/><path d="M86.195,27.465a8.026,8.026,0,0,1-2.185-.3,10.7,10.7,0,0,1-6.657-4.421,14.8,14.8,0,0,1-2.512-8.781,14.625,14.625,0,0,1,3-9.479A10.7,10.7,0,0,1,85.632.39h.67q5.475.27,8.584,6.584l.158.377-1.076.056Q91.151,1.674,86.3,1.449A5.841,5.841,0,0,0,82.049,3.3a12.628,12.628,0,0,0-2.889,4.72,17.567,17.567,0,0,0,0,11.89,12.87,12.87,0,0,0,2.889,4.776A5.8,5.8,0,0,0,86.3,26.563a7.407,7.407,0,0,0,4.68-1.887,12.16,12.16,0,0,0,3.334-4.883l1.081-.028-.163.377a12.673,12.673,0,0,1-3.757,5.373A8.229,8.229,0,0,1,86.195,27.465Z" transform="translate(2250.312 11771.829)"/><path d="M116.057,27.253H112.79V.15h3.267Z" transform="translate(2233.737 11771.935)"/><path d="M140.7,27.293h-3.424l-2.591-7.7H123.133l-2.292,7.7h-.811L128.073.19h3.453Zm-6.314-8.516L128.5,1.469l-5.109,17.308Z" transform="translate(2230.575 11771.917)"/><path d="M161.467,27.36H158.2V.15h3.267V.2h0l16.446,25.774V.15h.805v27.1h-1L161.467,1.7Z" transform="translate(2213.903 11771.935)"/><path d="M216.741,27.293h-3.424l-2.591-7.7H199.173l-2.292,7.7h-.811L204.113.19h3.453Zm-6.314-8.516-5.88-17.308L199.41,18.777Z" transform="translate(2197.363 11771.917)"/><path d="M263.552,27.159a11.265,11.265,0,0,1-6.815-2.067,6.031,6.031,0,0,1-2.816-4.956h.811a5.018,5.018,0,0,0,2.1,4,10.335,10.335,0,0,0,5.272,2.1c.665.051,1.38.079,2.135.079a11.647,11.647,0,0,0,3.751-.845,7.978,7.978,0,0,0,1.808-1.521,3.379,3.379,0,0,0,.89-2.18q0-2.585-4.185-4.951a23.954,23.954,0,0,0-3.21-1.526l-.648-.27q-9.153-3.194-9.26-8.708a4.942,4.942,0,0,1,2.129-3.943,11.371,11.371,0,0,1,3.267-1.69A12.019,12.019,0,0,1,262.8,0l.62.028V.056h.135a11.4,11.4,0,0,1,6.342,1.7,6.759,6.759,0,0,1,3.21,4.365h-.834a6.066,6.066,0,0,0-2.957-3.768A10.7,10.7,0,0,0,263.608.873a9.484,9.484,0,0,0-3.633.924,4.7,4.7,0,0,0-2.253,2.394,4.234,4.234,0,0,0-.321,1.549q0,2.72,3.723,4.765a18.439,18.439,0,0,0,3.306,1.5l.676.27a38.305,38.305,0,0,1,4.033,1.74,12.261,12.261,0,0,1,3.255,2.287,4.241,4.241,0,0,1,1.3,3.075,6.6,6.6,0,0,1-.935,3.413,7.53,7.53,0,0,1-2.67,2.653,11.5,11.5,0,0,1-4.033,1.47,12.707,12.707,0,0,1-2.5.248Z" transform="translate(2172.332 11772)"/><path d="M311.566,27.293h-3.43l-2.591-7.7H294l-2.3,7.7h-.811L298.933.19h3.458Zm-6.314-8.516L299.367,1.469l-5.125,17.308Z" transform="translate(2155.948 11771.917)"/><path d="M336.062,27.443h-3.289V1.185H324.24V.34h20.648v.845h-8.826Z" transform="translate(2141.382 11771.852)"/><path d="M373.672,27.253a7.47,7.47,0,0,1-2.186-.327,10.7,10.7,0,0,1-6.64-4.421,14.777,14.777,0,0,1-2.506-8.8,17.1,17.1,0,0,1,1.527-7.065,11.2,11.2,0,0,1,4.815-5.292A9.851,9.851,0,0,1,373.244.15a8.657,8.657,0,0,1,4.466,1.233,10.431,10.431,0,0,1,3.52,3.526,15.968,15.968,0,0,1,2.32,8.629,17.332,17.332,0,0,1-1.126,6.336,13.924,13.924,0,0,1-3.633,5.43,7.547,7.547,0,0,1-5.12,1.949Zm.242-.845a6.539,6.539,0,0,0,4.427-1.757,12.267,12.267,0,0,0,3.2-4.68,16.789,16.789,0,0,0,1.2-6.432,16.625,16.625,0,0,0-1.076-6.043L381.2,6.323q-2.816-5.109-7.423-5.306A5.413,5.413,0,0,0,370.5,2.144a9.812,9.812,0,0,0-2.591,2.94,15.769,15.769,0,0,0-1.69,4.095,17.611,17.611,0,0,0-.6,4.545,18.023,18.023,0,0,0,1.352,6.855,10.814,10.814,0,0,0,3.672,4.951A6.33,6.33,0,0,0,373.914,26.408Z" transform="translate(2124.741 11771.935)"/><path d="M117.773,60.127H115.52v-.6h5.069v.6h-2.253v5.762h-.631Z" transform="translate(2232.545 11745.999)"/><path d="M136.38,65.884h-.817l-2.1-2.343h-1.628v2.343h-.631V59.525h2.816a1.932,1.932,0,0,1,2.09,2.016,1.831,1.831,0,0,1-1.9,1.954Zm-4.54-5.762v2.816H134a1.408,1.408,0,0,0,.034-2.816Z" transform="translate(2225.692 11746.004)"/><path d="M151.143,64.419h-3.661l-.648,1.47h-.665l2.816-6.359h.631l2.816,6.359h-.67Zm-3.408-.563h3.154l-1.577-3.622Z" transform="translate(2219.157 11745.999)"/><path d="M168.472,64.689l-.034-2.078V59.53h.631v6.359h-.377l-4.083-5.114v5.114H164V59.53h.4Z" transform="translate(2211.37 11745.999)"/><path d="M184.45,60.787a2.118,2.118,0,0,0-1.808-.811c-.777,0-1.774.231-1.774,1.166,0,.743.811.946,1.791,1.126,1.245.22,2.506.5,2.506,1.859s-1.38,1.814-2.523,1.814A2.749,2.749,0,0,1,180,64.533l.563-.3a2.253,2.253,0,0,0,2.084,1.126c.772,0,1.881-.208,1.881-1.228,0-.862-.946-1.081-1.926-1.256-1.188-.208-2.366-.473-2.366-1.69,0-1.335,1.335-1.763,2.4-1.763a2.619,2.619,0,0,1,2.354,1.126Z" transform="translate(2204.382 11746.049)"/><path d="M196.911,63.771v2.118h-.631V59.53H199.1a2.121,2.121,0,0,1,0,4.241Zm0-.6H199.1a1.524,1.524,0,0,0,0-3.047h-2.191Z" transform="translate(2197.271 11745.999)"/><path d="M212.6,59.53v5.762h3.509v.6H212V59.53Z" transform="translate(2190.405 11745.999)"/><path d="M229.683,64.419h-3.655l-.653,1.47h-.665l2.816-6.359h.631l2.816,6.359h-.636Zm-3.379-.563h3.16l-1.583-3.622Z" transform="translate(2184.854 11745.999)"/><path d="M247.04,64.689,247,62.611V59.53h.631v6.359h-.377l-4.083-5.114v5.114h-.631V59.53h.394Z" transform="translate(2177.066 11745.999)"/><path d="M260.425,60.127H258.2v-.6h5.069v.6h-2.253v5.762h-.631Z" transform="translate(2170.227 11745.999)"/><path d="M278.376,65.889H273.87V59.53h4.444v.6h-3.807V62.38h3.638v.563h-3.638v2.292H278.4Z" transform="translate(2163.383 11745.999)"/><path d="M302.977,64.95a3.21,3.21,0,0,1-2.3.963,3.064,3.064,0,0,1-3.284-3.244,3.126,3.126,0,0,1,3.284-3.312,2.9,2.9,0,0,1,2.253.957l-.389.389a2.6,2.6,0,0,0-1.847-.76,2.563,2.563,0,0,0-2.653,2.715,2.478,2.478,0,0,0,2.636,2.692,2.7,2.7,0,0,0,1.892-.783Z" transform="translate(2153.11 11746.077)"/><path d="M317.945,64.419h-3.661l-.648,1.47H313l2.816-6.359h.631l2.816,6.359h-.67Zm-3.379-.563h3.154l-1.577-3.622Z" transform="translate(2146.292 11745.999)"/><path d="M331.441,63.771v2.118h-.631V59.53h2.816a2.121,2.121,0,0,1,0,4.241Zm0-.6h2.191a1.524,1.524,0,0,0,0-3.047h-2.191Z" transform="translate(2138.513 11745.999)"/><path d="M346.48,65.889V59.53h.631v6.359Z" transform="translate(2131.669 11745.999)"/><path d="M356.141,59.53v5.762h3.509v.6h-4.14V59.53Z" transform="translate(2127.725 11745.999)"/><path d="M373.243,64.419h-3.655l-.653,1.47h-.665l2.816-6.359h.631l2.816,6.359h-.665Zm-3.408-.563H373l-1.583-3.622Z" transform="translate(2122.151 11745.999)"/><path d="M391.306,65.884h-.822l-2.09-2.343h-1.628v2.343h-.636V59.525h2.816a1.932,1.932,0,0,1,2.09,2.016,1.836,1.836,0,0,1-1.9,1.954Zm-4.54-5.762v2.816h2.163a1.408,1.408,0,0,0,.034-2.816Z" transform="translate(2114.351 11746.004)"/></g></svg>