<svg xmlns="http://www.w3.org/2000/svg" width="16" height="16" viewBox="0 0 16 16"><defs><style>.a{fill:#e2e2e2;}</style></defs><g transform="translate(-253 -12)"><path class="a" d="M8,0A8,8,0,1,1,0,8,8,8,0,0,1,8,0Z" transform="translate(253 12)"/><g transform="translate(257 16)"><path d="M0,5.326V.15H.8V5.17l4.217-.011v.156Z" transform="translate(0 -0.15)"/><path d="M255.878,6.67a2.766,2.766,0,0,1-1.674-.508,1.481,1.481,0,0,1-.692-1.217h.2a1.232,1.232,0,0,0,.515.983,2.538,2.538,0,0,0,1.295.515c.163.012.339.019.524.019a2.86,2.86,0,0,0,.921-.207,1.959,1.959,0,0,0,.444-.373.83.83,0,0,0,.219-.535q0-.635-1.028-1.216a5.883,5.883,0,0,0-.788-.375l-.159-.066q-2.248-.784-2.274-2.138A1.214,1.214,0,0,1,253.9.582a2.793,2.793,0,0,1,.8-.415A2.952,2.952,0,0,1,255.693,0l.152.007V.014h.033a2.8,2.8,0,0,1,1.557.418,1.66,1.66,0,0,1,.788,1.072h-.2a1.49,1.49,0,0,0-.726-.925,2.628,2.628,0,0,0-1.4-.364A2.329,2.329,0,0,0,255,.441a1.155,1.155,0,0,0-.553.588,1.04,1.04,0,0,0-.079.38q0,.668.914,1.17a4.529,4.529,0,0,0,.812.368l.166.066a9.4,9.4,0,0,1,.99.427,3.012,3.012,0,0,1,.8.562,1.042,1.042,0,0,1,.318.755,1.62,1.62,0,0,1-.23.838,1.85,1.85,0,0,1-.656.651,2.824,2.824,0,0,1-.99.361A3.12,3.12,0,0,1,255.878,6.67Z" transform="translate(-251.186 2.329)"/></g></g></svg>