<svg xmlns="http://www.w3.org/2000/svg" xmlns:xlink="http://www.w3.org/1999/xlink" width="122" height="199" viewBox="0 0 122 199"><defs><style>.a{fill:#fff;}.b{clip-path:url(#a);}.c{fill:url(#b);}.d{opacity:0.4;}</style><clipPath id="a"><rect class="a" width="122" height="199" transform="translate(0 1112)"/></clipPath><linearGradient id="b" x1="1" y1="1" x2="-0.26" y2="-0.156" gradientUnits="objectBoundingBox"><stop offset="0" stop-color="#e2e2e2"/><stop offset="1" stop-color="#e2e2e2" stop-opacity="0.2"/></linearGradient></defs><g class="b" transform="translate(122 1311) rotate(180)"><path class="c" d="M88,0c48.6,0,88,39.175,88,87.5S136.6,175,88,175,0,135.825,0,87.5,39.4,0,88,0Z" transform="translate(-54 1136)"/><path class="d" d="M68.5,1A67.18,67.18,0,0,0,30.761,12.527,67.7,67.7,0,0,0,6.3,42.226a67.41,67.41,0,0,0,6.223,64.013,67.7,67.7,0,0,0,29.7,24.457,67.41,67.41,0,0,0,64.013-6.223,67.7,67.7,0,0,0,24.457-29.7,67.41,67.41,0,0,0-6.223-64.013A67.7,67.7,0,0,0,94.774,6.3,67.076,67.076,0,0,0,68.5,1m0-1A68.5,68.5,0,1,1,0,68.5,68.5,68.5,0,0,1,68.5,0Z" transform="translate(-64 1125)"/><path class="d" d="M68.432,1a67.113,67.113,0,0,0-37.7,11.516A67.631,67.631,0,0,0,6.3,42.185a67.342,67.342,0,0,0,6.217,63.948,67.632,67.632,0,0,0,29.669,24.432,67.342,67.342,0,0,0,63.948-6.217,67.632,67.632,0,0,0,24.432-29.669,67.342,67.342,0,0,0-6.217-63.948A67.631,67.631,0,0,0,94.679,6.3,67.009,67.009,0,0,0,68.432,1m0-1A68.432,68.432,0,1,1,0,68.432,68.432,68.432,0,0,1,68.432,0Z" transform="translate(-84.308 1139.373)"/><path class="d" d="M68.5,1A67.18,67.18,0,0,0,30.761,12.527,67.7,67.7,0,0,0,6.3,42.226a67.41,67.41,0,0,0,6.223,64.013,67.7,67.7,0,0,0,29.7,24.457,67.41,67.41,0,0,0,64.013-6.223,67.7,67.7,0,0,0,24.457-29.7,67.41,67.41,0,0,0-6.223-64.013A67.7,67.7,0,0,0,94.774,6.3,67.076,67.076,0,0,0,68.5,1m0-1A68.5,68.5,0,1,1,0,68.5,68.5,68.5,0,0,1,68.5,0Z" transform="translate(-95 1112)"/></g></svg>