<svg xmlns="http://www.w3.org/2000/svg" xmlns:xlink="http://www.w3.org/1999/xlink" width="444" height="727" viewBox="0 0 444 727"><defs><style>.a{fill:#fff;}.b{clip-path:url(#a);}.c{fill:url(#b);}.d{opacity:0.4;}</style><clipPath id="a"><rect class="a" width="444" height="727" transform="translate(0 1112)"/></clipPath><linearGradient id="b" x1="-0.246" y1="-0.131" x2="1" y2="1" gradientUnits="objectBoundingBox"><stop offset="0" stop-color="#e2e2e2"/><stop offset="1" stop-color="#e2e2e2" stop-opacity="0.2"/></linearGradient></defs><g class="b" transform="translate(0 -1112)"><path class="c" d="M320,0C496.731,0,640,143.269,640,320S496.731,640,320,640,0,496.731,0,320,143.269,0,320,0Z" transform="translate(-196 1199)"/><path class="d" d="M250,1a250.843,250.843,0,0,0-50.183,5.059,247.631,247.631,0,0,0-89.034,37.466A249.73,249.73,0,0,0,20.567,153.078,247.738,247.738,0,0,0,6.059,199.817a251.438,251.438,0,0,0,0,100.366,247.631,247.631,0,0,0,37.466,89.034,249.73,249.73,0,0,0,109.554,90.215,247.738,247.738,0,0,0,46.738,14.508,251.438,251.438,0,0,0,100.366,0,247.631,247.631,0,0,0,89.034-37.466,249.73,249.73,0,0,0,90.215-109.554,247.738,247.738,0,0,0,14.508-46.739,251.438,251.438,0,0,0,0-100.366,247.631,247.631,0,0,0-37.466-89.034A249.73,249.73,0,0,0,346.922,20.567,247.738,247.738,0,0,0,300.183,6.059,250.842,250.842,0,0,0,250,1m0-1C388.071,0,500,111.929,500,250S388.071,500,250,500,0,388.071,0,250,111.929,0,250,0Z" transform="translate(-233 1160)"/><path class="d" d="M250,1a250.843,250.843,0,0,0-50.183,5.059,247.631,247.631,0,0,0-89.034,37.466A249.73,249.73,0,0,0,20.567,153.078,247.738,247.738,0,0,0,6.059,199.817a251.438,251.438,0,0,0,0,100.366,247.631,247.631,0,0,0,37.466,89.034,249.73,249.73,0,0,0,109.554,90.215,247.738,247.738,0,0,0,46.738,14.508,251.438,251.438,0,0,0,100.366,0,247.631,247.631,0,0,0,89.034-37.466,249.73,249.73,0,0,0,90.215-109.554,247.738,247.738,0,0,0,14.508-46.739,251.438,251.438,0,0,0,0-100.366,247.631,247.631,0,0,0-37.466-89.034A249.73,249.73,0,0,0,346.922,20.567,247.738,247.738,0,0,0,300.183,6.059,250.842,250.842,0,0,0,250,1m0-1C388.071,0,500,111.929,500,250S388.071,500,250,500,0,388.071,0,250,111.929,0,250,0Z" transform="translate(-308 1212)"/><path class="d" d="M250,1a250.843,250.843,0,0,0-50.183,5.059,247.631,247.631,0,0,0-89.034,37.466A249.73,249.73,0,0,0,20.567,153.078,247.738,247.738,0,0,0,6.059,199.817a251.438,251.438,0,0,0,0,100.366,247.631,247.631,0,0,0,37.466,89.034,249.73,249.73,0,0,0,109.554,90.215,247.738,247.738,0,0,0,46.738,14.508,251.438,251.438,0,0,0,100.366,0,247.631,247.631,0,0,0,89.034-37.466,249.73,249.73,0,0,0,90.215-109.554,247.738,247.738,0,0,0,14.508-46.739,251.438,251.438,0,0,0,0-100.366,247.631,247.631,0,0,0-37.466-89.034A249.73,249.73,0,0,0,346.922,20.567,247.738,247.738,0,0,0,300.183,6.059,250.842,250.842,0,0,0,250,1m0-1C388.071,0,500,111.929,500,250S388.071,500,250,500,0,388.071,0,250,111.929,0,250,0Z" transform="translate(-348 1112)"/></g></svg>