<svg xmlns="http://www.w3.org/2000/svg" xmlns:xlink="http://www.w3.org/1999/xlink" width="183.92" height="300" viewBox="0 0 183.92 300"><defs><style>.a{fill:#fff;}.b{clip-path:url(#a);}.c{fill:url(#b);}.d{opacity:0.4;}</style><clipPath id="a"><rect class="a" width="183.92" height="300" transform="translate(0 1112)"/></clipPath><linearGradient id="b" x1="0.843" y1="0.718" x2="-0.361" y2="-0.305" gradientUnits="objectBoundingBox"><stop offset="0" stop-color="#e2e2e2"/><stop offset="1" stop-color="#e2e2e2" stop-opacity="0.2"/></linearGradient></defs><g class="b" transform="translate(0 -1112)"><circle class="c" cx="131.91" cy="131.91" r="131.91" transform="translate(-81.407 1148.181)"/><path class="d" d="M103.266,1A103.028,103.028,0,0,0,82.655,3.078,101.7,101.7,0,0,0,46.089,18.465a102.568,102.568,0,0,0-37.053,45,101.745,101.745,0,0,0-5.958,19.2,103.273,103.273,0,0,0,0,41.223,101.7,101.7,0,0,0,15.387,36.566,102.568,102.568,0,0,0,45,37.053,101.745,101.745,0,0,0,19.2,5.958,103.273,103.273,0,0,0,41.223,0,101.7,101.7,0,0,0,36.566-15.387,102.568,102.568,0,0,0,37.053-45,101.745,101.745,0,0,0,5.958-19.2,103.273,103.273,0,0,0,0-41.223,101.7,101.7,0,0,0-15.387-36.566,102.568,102.568,0,0,0-45-37.053,101.745,101.745,0,0,0-19.2-5.958A103.028,103.028,0,0,0,103.266,1m0-1A103.266,103.266,0,1,1,0,103.266,103.266,103.266,0,0,1,103.266,0Z" transform="translate(-96.482 1131.598)"/><path class="d" d="M103.164,1A102.923,102.923,0,0,0,82.573,3.076,101.6,101.6,0,0,0,46.044,18.447,102.465,102.465,0,0,0,9.028,63.4,101.639,101.639,0,0,0,3.076,82.573a103.169,103.169,0,0,0,0,41.181,101.6,101.6,0,0,0,15.372,36.529A102.465,102.465,0,0,0,63.4,197.3a101.642,101.642,0,0,0,19.176,5.952,103.169,103.169,0,0,0,41.181,0,101.6,101.6,0,0,0,36.529-15.372A102.465,102.465,0,0,0,197.3,142.93a101.641,101.641,0,0,0,5.952-19.176,103.169,103.169,0,0,0,0-41.181A101.6,101.6,0,0,0,187.88,46.044,102.465,102.465,0,0,0,142.93,9.028a101.639,101.639,0,0,0-19.176-5.952A102.923,102.923,0,0,0,103.164,1m0-1A103.164,103.164,0,1,1,0,103.164,103.164,103.164,0,0,1,103.164,0Z" transform="translate(-127.098 1153.266)"/><path class="d" d="M103.266,1A103.028,103.028,0,0,0,82.655,3.078,101.7,101.7,0,0,0,46.089,18.465a102.568,102.568,0,0,0-37.053,45,101.745,101.745,0,0,0-5.958,19.2,103.273,103.273,0,0,0,0,41.223,101.7,101.7,0,0,0,15.387,36.566,102.568,102.568,0,0,0,45,37.053,101.745,101.745,0,0,0,19.2,5.958,103.273,103.273,0,0,0,41.223,0,101.7,101.7,0,0,0,36.566-15.387,102.568,102.568,0,0,0,37.053-45,101.745,101.745,0,0,0,5.958-19.2,103.273,103.273,0,0,0,0-41.223,101.7,101.7,0,0,0-15.387-36.566,102.568,102.568,0,0,0-45-37.053,101.745,101.745,0,0,0-19.2-5.958A103.028,103.028,0,0,0,103.266,1m0-1A103.266,103.266,0,1,1,0,103.266,103.266,103.266,0,0,1,103.266,0Z" transform="translate(-143.216 1112)"/></g></svg>