<svg xmlns="http://www.w3.org/2000/svg" xmlns:xlink="http://www.w3.org/1999/xlink" width="320" height="525" viewBox="0 0 320 525"><defs><style>.a{fill:#fff;}.b{clip-path:url(#a);}.c{fill:url(#b);}.d{opacity:0.4;}</style><clipPath id="a"><rect class="a" width="320" height="525" transform="translate(0 1111.659)"/></clipPath><linearGradient id="b" x1="1" y1="1" x2="-0.243" y2="-0.152" gradientUnits="objectBoundingBox"><stop offset="0" stop-color="#e2e2e2"/><stop offset="1" stop-color="#e2e2e2" stop-opacity="0.2"/></linearGradient></defs><g class="b" transform="translate(320 1636.659) rotate(180)"><ellipse class="c" cx="230.5" cy="231" rx="230.5" ry="231" transform="translate(-141 1174.659)"/><path class="d" d="M180.5,1a180.83,180.83,0,0,0-36.177,3.647A178.512,178.512,0,0,0,80.141,31.655a180.027,180.027,0,0,0-65.035,78.976A178.585,178.585,0,0,0,4.647,144.323a181.26,181.26,0,0,0,0,72.353,178.511,178.511,0,0,0,27.008,64.183,180.027,180.027,0,0,0,78.976,65.035,178.585,178.585,0,0,0,33.693,10.459,181.26,181.26,0,0,0,72.353,0,178.511,178.511,0,0,0,64.183-27.008,180.027,180.027,0,0,0,65.035-78.976,178.585,178.585,0,0,0,10.459-33.693,181.26,181.26,0,0,0,0-72.353,178.512,178.512,0,0,0-27.008-64.183,180.027,180.027,0,0,0-78.976-65.035A178.585,178.585,0,0,0,216.677,4.647,180.83,180.83,0,0,0,180.5,1m0-1A180.5,180.5,0,1,1,0,180.5,180.5,180.5,0,0,1,180.5,0Z" transform="translate(-168 1146.659)"/><path class="d" d="M180.419,1a180.75,180.75,0,0,0-36.16,3.645,178.431,178.431,0,0,0-64.154,27A179.946,179.946,0,0,0,15.1,110.581,178.508,178.508,0,0,0,4.645,144.259a181.178,181.178,0,0,0,0,72.321,178.43,178.43,0,0,0,27,64.154,179.946,179.946,0,0,0,78.94,65.006,178.508,178.508,0,0,0,33.677,10.454,181.178,181.178,0,0,0,72.321,0,178.43,178.43,0,0,0,64.154-27,179.946,179.946,0,0,0,65.006-78.94,178.508,178.508,0,0,0,10.454-33.677,181.178,181.178,0,0,0,0-72.321,178.431,178.431,0,0,0-27-64.154A179.946,179.946,0,0,0,250.257,15.1,178.508,178.508,0,0,0,216.579,4.645,180.75,180.75,0,0,0,180.419,1m0-1A180.419,180.419,0,1,1,0,180.419,180.419,180.419,0,0,1,180.419,0Z" transform="translate(-222.276 1184.168)"/><path class="d" d="M180.5,1a180.83,180.83,0,0,0-36.177,3.647A178.512,178.512,0,0,0,80.141,31.655a180.027,180.027,0,0,0-65.035,78.976A178.585,178.585,0,0,0,4.647,144.323a181.26,181.26,0,0,0,0,72.353,178.511,178.511,0,0,0,27.008,64.183,180.027,180.027,0,0,0,78.976,65.035,178.585,178.585,0,0,0,33.693,10.459,181.26,181.26,0,0,0,72.353,0,178.511,178.511,0,0,0,64.183-27.008,180.027,180.027,0,0,0,65.035-78.976,178.585,178.585,0,0,0,10.459-33.693,181.26,181.26,0,0,0,0-72.353,178.512,178.512,0,0,0-27.008-64.183,180.027,180.027,0,0,0-78.976-65.035A178.585,178.585,0,0,0,216.677,4.647,180.83,180.83,0,0,0,180.5,1m0-1A180.5,180.5,0,1,1,0,180.5,180.5,180.5,0,0,1,180.5,0Z" transform="translate(-251 1111.659)"/></g></svg>